<svg xmlns="http://www.w3.org/2000/svg" viewBox="0 0 217.62 226.18"><defs><style>.cls-1{fill:#303030;}</style></defs><g id="Layer_2" data-name="Layer 2"><g id="Layer_1-2" data-name="Layer 1"><path class="cls-1" d="M210.11,33.16c-7.1-.11-14.2-.2-21.29,0-3.33.12-4.62-.62-4.44-4.26.32-6.72.12-13.47.08-20.21-.05-6.27-2-8.8-6.68-8.73s-6.38,2.56-6.44,9c0,3,0,6,0,9,0,3.9-.19,7.81.07,11.69.19,2.9-.9,3.55-3.59,3.49-7.27-.17-14.55,0-21.82-.08-4.58,0-7.61,1.62-7.79,6.57C138,44,140.58,46.16,146,46.23c7.09.09,14.2.18,21.28,0,3.14-.1,4.34.54,4.19,4-.31,6.9-.14,13.82-.08,20.74.05,6,1.94,8.4,6.4,8.49s6.66-2.53,6.71-8.73c0-6.91.17-13.83-.07-20.73-.1-3.1.93-3.84,3.87-3.76,7.27.2,14.54.06,21.82.06,4.27,0,7.3-1.53,7.53-6.27C217.83,35.64,215.26,33.25,210.11,33.16Z"/><path class="cls-1" d="M83.3,59.75C38.42,59.75,0,97,0,140.41,0,189,35.94,226.17,83,226.18c45.8,0,83.4-36.77,83.46-81.62C166.51,97.22,129.78,59.76,83.3,59.75ZM95.6,208.56c-36.84,6.75-72.06-17.95-78-54.72-.13-.82-.06-1.68-.24-2.48-2.05-9.58-.41-16.25,9.77-21.45C41.77,122.42,52,109.66,58.9,94.57c.4-.87.94-1.68,1.76-3.12,12.19,16.32,27.5,26.93,46.42,32.11a77.28,77.28,0,0,0,35.58,1.38c4.13-.8,5,.63,5.8,4.23C156.23,165.52,132.09,201.87,95.6,208.56Z"/><path class="cls-1" d="M58.4,141.09a10.31,10.31,0,0,0-.07,20.61,10.44,10.44,0,0,0,10.26-10.56C68.64,145.87,63.81,141.11,58.4,141.09Z"/><path class="cls-1" d="M108.91,141.07c-5.17-.41-10.63,4.35-10.87,9.47a10.58,10.58,0,0,0,9.69,11.13,10.41,10.41,0,0,0,10.85-9.95C118.93,146.5,114.39,141.49,108.91,141.07Z"/></g></g></svg>