<svg xmlns="http://www.w3.org/2000/svg" viewBox="0 0 164.12 115.39"><defs><style>.cls-1{fill:#023a4c;stroke:#023a4c;stroke-miterlimit:10;}</style></defs><g id="Layer_2" data-name="Layer 2"><g id="Layer_1-2" data-name="Layer 1"><path class="cls-1" d="M163.38,84.76c-2.56-18.05-5.51-36.08-9.17-53.94-2.8-13.71-11.55-22.34-25.59-25.41-15.37-3.35-31-4.1-46.78-4.91C71,1.13,60,1.43,49.09,3c-3.49.5-7,1-10.46,1.7C20.5,8.21,11.79,17.16,8.68,35.47,6.09,50.77,3.55,66.08,1,81.38s6.1,29.52,20.19,32.73c15.1,3.45,28.71-4.84,33.07-20.32.72-2.53,1.7-3.4,4.4-3.38,15,.15,30,.22,44.94,0,3.87-.06,5.55.89,6.63,4.84,3.78,13.92,17.17,21.74,31.67,19C155.06,111.75,165.32,98.36,163.38,84.76Zm-23.75,26c-12.36,1.91-23.69-5.94-26.52-18.8-1-4.38-3.15-5.7-7.37-5.66-15.53.16-31.07.07-46.6.07-6.57,0-6.57,0-8.31,6.39-2.72,10-10.11,16.89-19.94,18S13.25,108.26,7.8,100C4.26,94.6,3.44,88.56,4.49,82.32c2.76-16.39,5.42-32.79,8.56-49.1C15.44,20.8,22.56,12.48,35.39,9.54,50.73,6,66.3,5,82,4.56,97.61,5,113.18,6,128.54,9.49c11.77,2.65,19.29,9.94,21.69,21.31C154,48.5,157,66.39,159.54,84.31,161.41,97.59,152.41,108.81,139.63,110.79Z"/><path class="cls-1" d="M64.39,47.65c-3.54-.06-7.09-.1-10.62,0-1.93.05-2.68-.61-2.62-2.58.12-3.4.05-6.81,0-10.21,0-1.49.13-3.32-2.06-3.24-1.92.06-1.71,1.78-1.73,3.11a76.84,76.84,0,0,0,0,9c.36,3.42-1.09,4.21-4.15,4a74.21,74.21,0,0,0-8.17,0c-1.55,0-3.76-.37-3.85,1.89s2.13,2,3.69,2c3.13.08,6.27.13,9.39,0,2.23-.1,3.23.55,3.07,3a70,70,0,0,0,0,8.57c.1,1.67-1,4.54,1.94,4.42,2.75-.11,1.7-2.91,1.79-4.64a61.72,61.72,0,0,0,0-8.16c-.21-2.61.85-3.3,3.28-3.17,3.26.18,6.54.08,9.8,0,1.36,0,2.8-.09,3.16-1.92C67.16,47.86,65.76,47.67,64.39,47.65Z"/><path class="cls-1" d="M127,27.4a9.75,9.75,0,0,0-10.1,9.92A10.07,10.07,0,1,0,127,27.4Zm.07,16.09a6.14,6.14,0,1,1-.22-12.28,6.14,6.14,0,1,1,.22,12.28Z"/><path class="cls-1" d="M111.16,51.93c-6-.19-10.53,4-10.63,9.78A9.84,9.84,0,0,0,110,71.82c6,.19,10.53-4,10.65-9.78A9.86,9.86,0,0,0,111.16,51.93ZM110.44,68a6.14,6.14,0,1,1,6.41-6A6.21,6.21,0,0,1,110.44,68Z"/></g></g></svg>