<svg xmlns="http://www.w3.org/2000/svg" viewBox="0 0 223.14274 223.18918"><defs><style>.cls-1{fill:#4285f4;}.cls-1,.cls-2,.cls-3,.cls-4{fill-rule:evenodd;}.cls-2{fill:#34a853;}.cls-3{fill:#fbbc05;}.cls-4{fill:#ea4335;}.cls-5{fill:none;}</style></defs><g id="Layer_2" data-name="Layer 2"><g id="Layer_35" data-name="Layer 35"><g id="logo_googleg_48dp" data-name="logo googleg 48dp"><path id="Shape" class="cls-1" d="M218.67987,114.11437a128.18925,128.18925,0,0,0-2.0286-22.82143H111.57137v43.15778h60.04572a51.326,51.326,0,0,1-22.26357,33.67422v27.99438h36.05776A108.813,108.813,0,0,0,218.67987,114.11437Z"/><path id="Shape-2" class="cls-2" d="M111.57137,223.15a106.518,106.518,0,0,0,73.83991-27.03064l-36.05776-27.99438a67.31038,67.31038,0,0,1-100.2114-35.34779h-37.275v28.90714A111.52937,111.52937,0,0,0,111.57137,223.15Z"/><path id="Shape-3" class="cls-3" d="M49.14212,132.77715a65.96033,65.96033,0,0,1,0-42.39712V61.4729h-37.275a111.71258,111.71258,0,0,0,0,100.21142Z"/><path id="Shape-4" class="cls-4" d="M111.57137,44.38227A60.27258,60.27258,0,0,1,154.222,61.06714l32.00077-32.00065A107.22578,107.22578,0,0,0,111.57137.00724,111.52933,111.52933,0,0,0,11.86711,61.47289l37.275,28.90716A66.49242,66.49242,0,0,1,111.57137,44.38227Z"/><path id="Shape-5" class="cls-5" d="M0,.00724H223.14274V223.15H0Z"/></g></g></g></svg>