<svg xmlns="http://www.w3.org/2000/svg" viewBox="0 0 35.16 488.78"><defs><style>.cls-1{fill:#303030;}</style></defs><g id="Layer_2" data-name="Layer 2"><g id="Layer_1-2" data-name="Layer 1"><g id="Layer_2-2" data-name="Layer 2"><g id="Layer_1-2-2" data-name="Layer 1-2"><path class="cls-1" d="M24.06,452.54a1.9,1.9,0,0,1,0,2.67L8.88,470.39,6.2,473.07l0-.07c-1.66-1.72-2.27-2.32-2.4-2.4s-.05,0-.08-.09a.38.38,0,0,1,0-.41.41.41,0,0,1,.1-.1c.17-.11,7-6.92,17.51-17.46A2.55,2.55,0,0,1,24.06,452.54Z"/><path class="cls-1" d="M6.18,467.69,24,485.55a1.9,1.9,0,0,1,0,2.68,1.91,1.91,0,0,1-2.68,0L6.2,473.07l0-.06-2.62-2.62,0,0Z"/></g></g><path class="cls-1" d="M26.71,437.62H1.61V434.7h25.1Z"/><path class="cls-1" d="M7.55,407.8a6.23,6.23,0,0,1,1.63-4.69q1.62-1.58,5.21-1.58H26.71v2.82H14.52a5.15,5.15,0,0,0-3.42,1A3.68,3.68,0,0,0,10,408.26a4.72,4.72,0,0,0,1.58,4,7.45,7.45,0,0,0,4.65,1.23H26.71v2.84H14.52a6.51,6.51,0,0,0-2.54.43A3.22,3.22,0,0,0,10.46,418a4.38,4.38,0,0,0-.5,2.19,5.2,5.2,0,0,0,.77,3A4.33,4.33,0,0,0,13,424.87a11.9,11.9,0,0,0,3.74.51h10v2.85H7.9v-2.3l2.66-.43v-.16a5.81,5.81,0,0,1-1.65-1.42,6.09,6.09,0,0,1-1-1.92,7.34,7.34,0,0,1-.35-2.27,7.43,7.43,0,0,1,.8-3.6,4.62,4.62,0,0,1,2.43-2.1v-.15a5.86,5.86,0,0,1-2.43-2.55A7.86,7.86,0,0,1,7.55,407.8Z"/><path class="cls-1" d="M7.59,388.64a7.15,7.15,0,0,1,1.51-5c1-1.08,2.61-1.63,4.82-1.63H26.71v2.08l-2.78.55v.14a10.11,10.11,0,0,1,1.73,1.64,6,6,0,0,1,1,2,9.13,9.13,0,0,1,.36,2.75,7.35,7.35,0,0,1-.6,3,4.69,4.69,0,0,1-1.82,2.09,5.76,5.76,0,0,1-3.09.77,4.91,4.91,0,0,1-4.33-2.23q-1.51-2.23-1.65-6.8l-.14-3.25H14.28a4.53,4.53,0,0,0-3.41,1,4.12,4.12,0,0,0-1,3,9,9,0,0,0,.43,2.82,18.41,18.41,0,0,0,1,2.54L9.17,395a15.47,15.47,0,0,1-1.12-2.92A12.75,12.75,0,0,1,7.59,388.64Zm9.85-3.81.12,2.87a9.72,9.72,0,0,0,1.15,5,3.31,3.31,0,0,0,2.87,1.44,2.87,2.87,0,0,0,2.39-1,4.09,4.09,0,0,0,.77-2.59,6,6,0,0,0-1.39-4.11,5.25,5.25,0,0,0-4.17-1.59Z"/><path class="cls-1" d="M35.16,370.89a10,10,0,0,1-1.38,5.71,4.7,4.7,0,0,1-6.9.89,5.56,5.56,0,0,1-1.66-3.12,3.21,3.21,0,0,1-1,1.26,2.53,2.53,0,0,1-1.58.53,2.92,2.92,0,0,1-1.81-.58,6,6,0,0,1-1.5-1.76,5,5,0,0,1-2,2.4,6.06,6.06,0,0,1-3.34.92,6.74,6.74,0,0,1-3.46-.84,5.46,5.46,0,0,1-2.18-2.44A8.89,8.89,0,0,1,7.52,370c0-.34,0-.67,0-1s.07-.66.12-1a6.2,6.2,0,0,1,.18-.81v-6.45H9.7l.43,3.47a5.85,5.85,0,0,1,1.61-.86,6.09,6.09,0,0,1,2.1-.34,5.62,5.62,0,0,1,4.47,1.9A7.75,7.75,0,0,1,20,370.17a10,10,0,0,1-.14,1.61,4,4,0,0,0,1,1.28,2.08,2.08,0,0,0,1.3.44,1.15,1.15,0,0,0,.88-.34,2,2,0,0,0,.47-1,6.67,6.67,0,0,0,.15-1.52v-3.32A7.46,7.46,0,0,1,25,362.64,4.48,4.48,0,0,1,28.7,361a5.38,5.38,0,0,1,4.79,2.54Q35.16,366.08,35.16,370.89Zm-17.27-.83a4.16,4.16,0,0,0-1-3.07,4.07,4.07,0,0,0-3-1A4.3,4.3,0,0,0,10.69,367a4.15,4.15,0,0,0-1.06,3.09,4,4,0,0,0,1.09,3,4.39,4.39,0,0,0,3.19,1.06,3.92,3.92,0,0,0,2.95-1.07A4.18,4.18,0,0,0,17.89,370.06Zm15,.74a13.63,13.63,0,0,0-.47-3.87,4.9,4.9,0,0,0-1.36-2.3,3.1,3.1,0,0,0-2.1-.76,2.5,2.5,0,0,0-1.71.51,2.6,2.6,0,0,0-.77,1.51,12.18,12.18,0,0,0-.2,2.44v3.26a5.79,5.79,0,0,0,.39,2.22,3.2,3.2,0,0,0,1.17,1.45,3.52,3.52,0,0,0,1.92.5,2.59,2.59,0,0,0,2.33-1.28A7.05,7.05,0,0,0,32.93,370.8Z"/><path class="cls-1" d="M.86,355.59a1.76,1.76,0,0,1,.45-1.21,1.82,1.82,0,0,1,1.42-.5,1.81,1.81,0,0,1,1.41.5,1.85,1.85,0,0,1,0,2.44,1.84,1.84,0,0,1-1.41.49,1.85,1.85,0,0,1-1.42-.49A1.76,1.76,0,0,1,.86,355.59Zm7-1.39H26.71v2.85H7.9Z"/><path class="cls-1" d="M7.55,339.27a7.09,7.09,0,0,1,1.64-5.07c1.1-1.14,2.85-1.72,5.27-1.72H26.71v2.82H14.64a5.09,5.09,0,0,0-3.52,1.07A4.29,4.29,0,0,0,10,339.66c0,2.08.59,3.55,1.77,4.39a8.71,8.71,0,0,0,5.13,1.28h9.85v2.85H7.9v-2.3l2.71-.43v-.16a5.68,5.68,0,0,1-1.67-1.53,6.58,6.58,0,0,1-1-2.07A8.1,8.1,0,0,1,7.55,339.27Z"/><path class="cls-1" d="M7.55,319.37a7.66,7.66,0,0,1,1.07-4.12,6.88,6.88,0,0,1,3-2.63,10.22,10.22,0,0,1,4.47-.91h1.77v13a7.4,7.4,0,0,0,5-1.65,5.79,5.79,0,0,0,1.74-4.5,13.63,13.63,0,0,0-.33-3.16,17.39,17.39,0,0,0-1-2.85h2.51a13.72,13.72,0,0,1,.92,2.83,15.88,15.88,0,0,1,.3,3.3A9.64,9.64,0,0,1,26,323.41a7.56,7.56,0,0,1-3.25,3.13,11.24,11.24,0,0,1-5.26,1.12,12.53,12.53,0,0,1-5.26-1,7.8,7.8,0,0,1-3.42-2.89A7.91,7.91,0,0,1,7.55,319.37Zm2.34,0A4.69,4.69,0,0,0,11.38,323a7.07,7.07,0,0,0,4.17,1.62v-10a8.19,8.19,0,0,0-3,.52,4.29,4.29,0,0,0-2,1.54A4.59,4.59,0,0,0,9.89,319.4Z"/><path class="cls-1" d="M24.72,291.66a8.93,8.93,0,0,0-.12-1.44,7.05,7.05,0,0,0-.29-1.2h2.21a5.76,5.76,0,0,1,.38,1.38,10.29,10.29,0,0,1,.16,1.72,6.84,6.84,0,0,1-.53,2.72,4.09,4.09,0,0,1-1.77,1.94,6.92,6.92,0,0,1-3.47.73H10.13v2.68H8.74L7.62,297.5l-4.08-1.14v-1.71H7.9v-5.51h2.23v5.51H21.2a3.76,3.76,0,0,0,2.65-.82A2.83,2.83,0,0,0,24.72,291.66Z"/><path class="cls-1" d="M0,282.35H8c.46,0,.92,0,1.39,0a11.68,11.68,0,0,1,1.27.12v-.19A5.65,5.65,0,0,1,9,280.84a6.64,6.64,0,0,1-1-2.06,8.4,8.4,0,0,1-.35-2.43,8.84,8.84,0,0,1,.72-3.79,4.79,4.79,0,0,1,2.23-2.28,8.68,8.68,0,0,1,3.92-.77H26.71v2.82H14.64a5.09,5.09,0,0,0-3.52,1.07A4.29,4.29,0,0,0,10,276.69a6,6,0,0,0,.8,3.34,4.38,4.38,0,0,0,2.34,1.78,11.54,11.54,0,0,0,3.78.54h9.83v2.86H0Z"/><path class="cls-1" d="M7.55,256.4a7.63,7.63,0,0,1,1.07-4.12,6.88,6.88,0,0,1,3-2.63,10.22,10.22,0,0,1,4.47-.91h1.77v13a7.4,7.4,0,0,0,5-1.65,5.82,5.82,0,0,0,1.74-4.5,13.63,13.63,0,0,0-.33-3.16,17.39,17.39,0,0,0-1-2.85h2.51a13.72,13.72,0,0,1,.92,2.83,15.88,15.88,0,0,1,.3,3.3A9.64,9.64,0,0,1,26,260.44a7.56,7.56,0,0,1-3.25,3.13,11.24,11.24,0,0,1-5.26,1.12,12.53,12.53,0,0,1-5.26-1,7.8,7.8,0,0,1-3.42-2.89A7.91,7.91,0,0,1,7.55,256.4Zm2.34,0a4.69,4.69,0,0,0,1.49,3.64,7.07,7.07,0,0,0,4.17,1.62v-10a8.19,8.19,0,0,0-3,.52,4.29,4.29,0,0,0-2,1.54A4.57,4.57,0,0,0,9.89,256.43Z"/><path class="cls-1" d="M7.55,235.35c0-.38,0-.77.06-1.18a9.16,9.16,0,0,1,.17-1.1l2.64.36a8.66,8.66,0,0,0-.19,1,10.27,10.27,0,0,0-.07,1.06,5.19,5.19,0,0,0,1.76,3.9A6.16,6.16,0,0,0,14,240.6a7.67,7.67,0,0,0,2.65.43H26.71v2.87H7.9v-2.37l3.47-.31v-.12a9.5,9.5,0,0,1-1.92-1.41,6.23,6.23,0,0,1-1.38-1.91A5.69,5.69,0,0,1,7.55,235.35Z"/><path class="cls-1" d="M7.55,222.29a7.63,7.63,0,0,1,1.07-4.12,6.88,6.88,0,0,1,3-2.63,10.22,10.22,0,0,1,4.47-.91h1.77v13a7.34,7.34,0,0,0,5-1.64,5.82,5.82,0,0,0,1.74-4.5,13.63,13.63,0,0,0-.33-3.16,17.39,17.39,0,0,0-1-2.85h2.51a13.84,13.84,0,0,1,.92,2.82,16,16,0,0,1,.3,3.31A9.67,9.67,0,0,1,26,226.33a7.62,7.62,0,0,1-3.25,3.13,11.24,11.24,0,0,1-5.26,1.12,12.53,12.53,0,0,1-5.26-1,7.64,7.64,0,0,1-4.63-7.27Zm2.34,0A4.69,4.69,0,0,0,11.38,226a7.06,7.06,0,0,0,4.17,1.61v-9.95a8.19,8.19,0,0,0-3,.52,4.29,4.29,0,0,0-2,1.54A4.57,4.57,0,0,0,9.89,222.32Z"/><path class="cls-1" d="M.86,199.2A1.75,1.75,0,0,1,1.31,198a1.82,1.82,0,0,1,1.42-.51,1.82,1.82,0,0,1,1.41.51,1.71,1.71,0,0,1,.46,1.21,1.68,1.68,0,0,1-.46,1.22,1.84,1.84,0,0,1-1.41.49,1.85,1.85,0,0,1-1.42-.49A1.72,1.72,0,0,1,.86,199.2Zm7-1.4H26.71v2.86H7.9Z"/><path class="cls-1" d="M21.56,179.61a5,5,0,0,1,3,.9,5.41,5.41,0,0,1,1.85,2.57,11.63,11.63,0,0,1,.62,4,16.88,16.88,0,0,1-.31,3.41,9.93,9.93,0,0,1-.88,2.52H23.25a17.61,17.61,0,0,0,1-2.74,12,12,0,0,0,.46-3.26,6.14,6.14,0,0,0-.79-3.54,2.52,2.52,0,0,0-2.15-1.1,2.24,2.24,0,0,0-1.36.44,4.29,4.29,0,0,0-1.15,1.47,22.51,22.51,0,0,0-1.23,2.85,31.09,31.09,0,0,1-1.36,3.11,5.78,5.78,0,0,1-1.66,2,4.24,4.24,0,0,1-2.54.71,4.15,4.15,0,0,1-3.67-1.93A9.07,9.07,0,0,1,7.55,186a14.74,14.74,0,0,1,1.24-6l2.28,1a18.18,18.18,0,0,0-.84,2.49,10.63,10.63,0,0,0-.34,2.7,5.88,5.88,0,0,0,.65,3,2,2,0,0,0,1.79,1.05,2.11,2.11,0,0,0,1.44-.49,4.5,4.5,0,0,0,1.06-1.57c.34-.72.72-1.67,1.17-2.85a23,23,0,0,1,1.35-3.05,5.65,5.65,0,0,1,1.68-2A4.32,4.32,0,0,1,21.56,179.61Z"/><path class="cls-1" d="M7.59,158.85a7.11,7.11,0,0,1,1.51-5c1-1.09,2.61-1.64,4.82-1.64H26.71v2.08l-2.78.55V155a10.15,10.15,0,0,1,1.73,1.65,5.86,5.86,0,0,1,1,2,9.15,9.15,0,0,1,.36,2.76,7.3,7.3,0,0,1-.6,3,4.77,4.77,0,0,1-1.82,2.1,5.75,5.75,0,0,1-3.09.76,4.91,4.91,0,0,1-4.33-2.23q-1.51-2.24-1.65-6.8L15.43,155H14.28a4.57,4.57,0,0,0-3.41,1,4.15,4.15,0,0,0-1,3,9,9,0,0,0,.43,2.81,18.41,18.41,0,0,0,1,2.54l-2.16.88a15.47,15.47,0,0,1-1.12-2.92A12.75,12.75,0,0,1,7.59,158.85ZM17.44,155l.12,2.87a9.72,9.72,0,0,0,1.15,5,3.31,3.31,0,0,0,2.87,1.44,2.87,2.87,0,0,0,2.39-1,4.07,4.07,0,0,0,.77-2.59,6,6,0,0,0-1.39-4.1,5.23,5.23,0,0,0-4.17-1.6Z"/><path class="cls-1" d="M7.55,128.38A7,7,0,0,1,10,122.77c1.62-1.4,4-2.1,7.28-2.1a13.36,13.36,0,0,1,5.39,1,7.17,7.17,0,0,1,3.3,2.71,7.48,7.48,0,0,1,1.12,4.11,8,8,0,0,1-.4,2.62A6.11,6.11,0,0,1,25.6,133a6.78,6.78,0,0,1-1.46,1.34v.21l1.61-.13c.63-.05,1.18-.08,1.65-.08h7.72v2.87H7.9v-2.35l2.78-.38v-.14A7.35,7.35,0,0,1,9.11,133,5.74,5.74,0,0,1,8,131.08,7.81,7.81,0,0,1,7.55,128.38Zm2.41.5a5.88,5.88,0,0,0,.75,3.15A4.41,4.41,0,0,0,13,133.77a11.44,11.44,0,0,0,3.77.58h.55a13.42,13.42,0,0,0,4-.52,4.73,4.73,0,0,0,2.51-1.73,5.55,5.55,0,0,0,.86-3.26,4.49,4.49,0,0,0-1-2.92,5.69,5.69,0,0,0-2.63-1.74,12.2,12.2,0,0,0-3.89-.57,9.56,9.56,0,0,0-5.3,1.29A4.44,4.44,0,0,0,10,128.88Z"/><path class="cls-1" d="M7.55,108.46a7.68,7.68,0,0,1,1.07-4.12,6.92,6.92,0,0,1,3-2.62,10.22,10.22,0,0,1,4.47-.91h1.77v13a7.34,7.34,0,0,0,5-1.64,5.82,5.82,0,0,0,1.74-4.5,13.63,13.63,0,0,0-.33-3.16,16.78,16.78,0,0,0-1-2.85h2.51a13.84,13.84,0,0,1,.92,2.82,16,16,0,0,1,.3,3.31A9.67,9.67,0,0,1,26,112.51a7.62,7.62,0,0,1-3.25,3.13,11.36,11.36,0,0,1-5.26,1.12,12.53,12.53,0,0,1-5.26-1,7.64,7.64,0,0,1-4.63-7.28Zm2.34,0a4.7,4.7,0,0,0,1.49,3.64,7.06,7.06,0,0,0,4.17,1.61v-10a8.4,8.4,0,0,0-3,.53,4.29,4.29,0,0,0-2,1.54A4.55,4.55,0,0,0,9.89,108.5Z"/><path class="cls-1" d="M7.55,87.42c0-.38,0-.77.06-1.19a9.85,9.85,0,0,1,.17-1.1l2.64.37a8.29,8.29,0,0,0-.19,1,10.09,10.09,0,0,0-.07,1.06,5.21,5.21,0,0,0,.46,2.14,5.3,5.3,0,0,0,1.3,1.76A6.33,6.33,0,0,0,14,92.67a7.67,7.67,0,0,0,2.65.43H26.71V96H7.9V93.6l3.47-.31v-.12a9.5,9.5,0,0,1-1.92-1.41,6.35,6.35,0,0,1-1.38-1.91A5.69,5.69,0,0,1,7.55,87.42Z"/><path class="cls-1" d="M21.56,69.43a5,5,0,0,1,3,.9,5.41,5.41,0,0,1,1.85,2.57,11.61,11.61,0,0,1,.62,4,16.92,16.92,0,0,1-.31,3.42,9.93,9.93,0,0,1-.88,2.52H23.25a17.61,17.61,0,0,0,1-2.74,12,12,0,0,0,.46-3.26A6.14,6.14,0,0,0,24,73.29a2.52,2.52,0,0,0-2.15-1.1,2.24,2.24,0,0,0-1.36.44,4.29,4.29,0,0,0-1.15,1.47A22.51,22.51,0,0,0,18.06,77a31.09,31.09,0,0,1-1.36,3.11,5.78,5.78,0,0,1-1.66,2,4.24,4.24,0,0,1-2.54.71,4.15,4.15,0,0,1-3.67-1.93A9.07,9.07,0,0,1,7.55,75.8a14.74,14.74,0,0,1,1.24-6l2.28,1a18.18,18.18,0,0,0-.84,2.49A10.61,10.61,0,0,0,9.89,76a5.83,5.83,0,0,0,.65,3,2,2,0,0,0,1.79,1.06,2.11,2.11,0,0,0,1.44-.49A4.59,4.59,0,0,0,14.83,78c.34-.72.72-1.67,1.17-2.85a23.74,23.74,0,0,1,1.35-3.06,5.62,5.62,0,0,1,1.68-2A4.32,4.32,0,0,1,21.56,69.43Z"/><path class="cls-1" d="M17.27,48.62a13.17,13.17,0,0,1,4.14.6A8.5,8.5,0,0,1,24.48,51a7.48,7.48,0,0,1,1.92,2.74,9.47,9.47,0,0,1,.66,3.63,8.82,8.82,0,0,1-.66,3.46,7.66,7.66,0,0,1-1.92,2.72,8.56,8.56,0,0,1-3.07,1.76,12.59,12.59,0,0,1-4.14.63,12,12,0,0,1-5.26-1,7.47,7.47,0,0,1-3.31-3A9,9,0,0,1,7.55,57.2,8.68,8.68,0,0,1,8.7,52.7a7.8,7.8,0,0,1,3.33-3A11.77,11.77,0,0,1,17.27,48.62Zm0,14.32a11.6,11.6,0,0,0,3.93-.6,5.31,5.31,0,0,0,2.58-1.86,6.15,6.15,0,0,0,0-6.44,5.26,5.26,0,0,0-2.58-1.87,11.6,11.6,0,0,0-3.93-.6,11.36,11.36,0,0,0-3.89.6A5.21,5.21,0,0,0,10.85,54,5.4,5.4,0,0,0,10,57.27a4.87,4.87,0,0,0,1.94,4.3A9.19,9.19,0,0,0,17.27,62.94Z"/><path class="cls-1" d="M7.55,34.78a7.06,7.06,0,0,1,1.64-5.06C10.29,28.57,12,28,14.46,28H26.71v2.82H14.64a5,5,0,0,0-3.52,1.07A4.28,4.28,0,0,0,10,35.18q0,3.12,1.77,4.39a8.71,8.71,0,0,0,5.13,1.27h9.85v2.85H7.9v-2.3L10.61,41v-.15a5.68,5.68,0,0,1-1.67-1.53,6.64,6.64,0,0,1-1-2.08A8,8,0,0,1,7.55,34.78Z"/><path class="cls-1" d="M24.93,22.56A2.17,2.17,0,0,1,23.22,22a2.06,2.06,0,0,1-.51-1.42,2.22,2.22,0,0,1,.51-1.48,2.14,2.14,0,0,1,1.71-.6,2.2,2.2,0,0,1,1.72.6,2.14,2.14,0,0,1,.54,1.48A2,2,0,0,1,26.65,22,2.24,2.24,0,0,1,24.93,22.56Z"/><path class="cls-1" d="M24.93,13.32a2.17,2.17,0,0,1-1.71-.58,2.09,2.09,0,0,1-.51-1.43,2.19,2.19,0,0,1,.51-1.47,2.14,2.14,0,0,1,1.71-.6,2.2,2.2,0,0,1,1.72.6,2.12,2.12,0,0,1,.54,1.47,2,2,0,0,1-.54,1.43A2.23,2.23,0,0,1,24.93,13.32Z"/><path class="cls-1" d="M24.93,4.09a2.17,2.17,0,0,1-1.71-.59,2.08,2.08,0,0,1-.51-1.42A2.2,2.2,0,0,1,23.22.6,2.14,2.14,0,0,1,24.93,0a2.2,2.2,0,0,1,1.72.6,2.13,2.13,0,0,1,.54,1.48,2,2,0,0,1-.54,1.42A2.24,2.24,0,0,1,24.93,4.09Z"/></g></g></svg>