<svg xmlns="http://www.w3.org/2000/svg" viewBox="0 0 158.35 123.72"><defs><style>.cls-1{fill:#023a4c;stroke:#023a4c;stroke-miterlimit:10;}</style></defs><g id="Layer_2" data-name="Layer 2"><g id="Layer_1-2" data-name="Layer 1"><path class="cls-1" d="M157.82,17.67c0-7.71-3-11.5-10.35-13.62C138.17,1.37,128.69-.15,119,.77A214.5,214.5,0,0,0,84.23,7C60.53,13.26,37,19.49,12,13.53,5.21,11.89.59,16.68.55,23.81c-.09,13.85,0,27.7,0,41.55,0,13.56-.05,27.13,0,40.69,0,7.74,2.94,11.45,10.36,13.6,9.45,2.74,19.09,4.25,28.91,3.26a252.75,252.75,0,0,0,38.54-7.29c18.31-4.76,36.64-9.75,55.9-7.33,3.75.47,7.43,1.43,11.18,1.92,7.82,1,12.38-2.94,12.41-10.74,0-10.35,0-20.71,0-31.06C157.84,51.5,157.88,34.58,157.82,17.67Zm-4,51.24c0,10.06,0,20.13,0,30.2,0,5.75-2.73,8-8.29,6.7-21.9-5.07-43.13-.87-64.26,4.6-14.8,3.83-29.55,7.8-45,8.41a74.05,74.05,0,0,1-23.73-3c-6.48-1.89-8-3.92-8-10.63q0-20.14,0-40.28c0-13.42,0-26.84,0-40.27,0-5.64,2.87-8,8.32-6.74C33.72,22.73,54,19.16,74.18,14c13.11-3.35,26.18-6.84,39.65-8.54a77.64,77.64,0,0,1,34.09,3.07c4.7,1.52,5.91,5.09,5.9,9.58C153.77,35.05,153.8,52,153.8,68.91Z"/><path class="cls-1" d="M61.47,42.7c-8.27,11.11-8.31,27.36.07,38.36,4.38,5.74,10.12,9.08,19,9,5.2,0,11-2.65,15.37-7.8,9.45-11,9.42-29.86-.06-40.8A21.76,21.76,0,0,0,61.47,42.7ZM94,77.8c-7.78,10.81-21.59,10.93-29.52.26a27.09,27.09,0,0,1-5.18-16.35c.24-6.77,2.07-12.52,6.2-17.37,7.74-9.1,20.52-8.72,28,.76C100.62,54.23,100.86,68.31,94,77.8Z"/><path class="cls-1" d="M144.84,31.18c-9.54-.39-14.57-5.57-15.42-15.89-.14-1.61,0-3.54-2.32-3.36-2,.16-1.74,2-1.78,3.41a19.71,19.71,0,0,0,19.19,20.25c2.87.11,4.73-.76,4.46-2.24C148.55,31,146.61,31.25,144.84,31.18Z"/><path class="cls-1" d="M12.82,88.1c-1.51.07-3.2.12-3.34,2-.17,2.21,1.63,2.31,3.31,2.44,10.76.82,15.25,5.29,16.16,16,.13,1.44-.08,3.25,2,3.23,2.32,0,2-2,2.12-3.25C33.21,97,23.76,87.59,12.82,88.1Z"/><path class="cls-1" d="M145.21,72.94c-11.29.1-19.66,8.27-19.89,19.42-.07,2.85.54,4.41,1.87,4.29,2.49-.23,2.11-2.27,2.23-4,.71-9.91,5.51-14.61,15.84-15.54,1.58-.14,3.61.06,3.57-2.17S146.82,72.93,145.21,72.94Z"/><path class="cls-1" d="M31,27.08c-1.8-.07-1.91,1.7-2.06,3.23-1,11-5.12,15.19-16,16.27-1.59.16-3.62.05-3.42,2.31s2.17,1.9,3.76,1.86c11.5-.27,19.92-8.81,19.76-20C33,29.1,33.08,27.15,31,27.08Z"/></g></g></svg>