<svg xmlns="http://www.w3.org/2000/svg" viewBox="0 0 210.9 210.76"><defs><style>.cls-1{fill:#023a4c;}</style></defs><g id="Layer_2" data-name="Layer 2"><g id="Layer_1-2" data-name="Layer 1"><path class="cls-1" d="M105.19,0C46.7.22-.34,47.52,0,105.8A105.45,105.45,0,1,0,105.19,0Zm1.36,194.7c-48.62,1.21-89.79-39.15-90.5-88.7-.69-48.6,39.17-89.07,88.62-89.95,48.55-.87,89.1,38.89,90.16,88.39C195.87,152.89,156.19,193.47,106.55,194.7Z"/><path class="cls-1" d="M144.75,97.41c-8.65-.13-17.32-.24-26,0-4.07.14-5.64-.75-5.43-5.2.39-8.21.16-16.44.1-24.66,0-7.66-2.46-10.74-8.14-10.66s-7.8,3.13-7.87,11c0,3.67,0,7.35,0,11,0,4.76-.23,9.53.08,14.27.23,3.53-1.09,4.33-4.38,4.25-8.87-.2-17.75,0-26.62-.09-5.6-.07-9.3,2-9.52,8-.19,5.26,2.91,7.9,9.48,8,8.66.12,17.32.22,26-.06,3.84-.12,5.3.66,5.11,4.88-.38,8.42-.17,16.87-.1,25.31.06,7.28,2.37,10.25,7.82,10.36,5.61.12,8.13-3.08,8.18-10.65.06-8.43.21-16.88-.08-25.31-.12-3.77,1.14-4.68,4.72-4.58,8.87.24,17.75.07,26.63.08,5.21,0,8.91-1.87,9.19-7.66C154.18,100.44,151,97.51,144.75,97.41Z"/></g></g></svg>