<svg xmlns="http://www.w3.org/2000/svg" viewBox="0 0 143.16 143.38"><defs><style>.cls-1{fill:#023a4c;stroke:#023a4c;stroke-miterlimit:10;stroke-width:0.5px;}</style></defs><g id="Layer_2" data-name="Layer 2"><g id="Layer_1-2" data-name="Layer 1"><path class="cls-1" d="M117,126.57c-1.23-3.3-.23-5.22,1.73-7.26,18.36-19.11,24.64-41.7,17-67.07C128.1,27.11,110.59,11.59,85,5.79,50.22-2.07,14,21.23,6.09,56.2c-8.16,36.2,14.16,72.51,49.57,80.6a65.41,65.41,0,0,0,17.25,1.84c1.42-.06,2.92-.43,3,2s-1.3,2.44-3.06,2.44c-39.18.15-68.27-29-72.12-63C-3.48,42.94,21,8.72,56.78,1.71,89.16-4.64,120,10.08,135.09,39c14.38,27.65,8.55,61.84-14.39,84.24C119.65,124.3,118.52,125.23,117,126.57Z"/><path class="cls-1" d="M102.35,98c-3.72,2.77-7.19,5.36-11.21,7-2,.82-1.91,2.3-1.9,4,0,7.45,0,14.9,0,22.35,0,1.49.31,3-2.11,2.93s-2-1.67-2-3.07c0-6.55-.21-13.12.07-19.66.15-3.52-1.14-3.66-4-3.11-18.66,3.54-34-2.38-46.23-16.68-1-1.12-2.71-2.12-.5-3.92s2.72.34,3.65,1.4c18.86,21.42,47.81,21.51,66.72.24.88-1,1.21-3.46,3.63-1.74s.54,3-.49,4.23c-1.24,1.47-.77,3.13-.78,4.7,0,14.31,0,28.61-.07,42.92,0,1.33,1.09,3.47-1.81,3.61-3.14.15-2.24-2.12-2.25-3.68,0-12.21,0-24.43,0-36.65C103,101.35,103.37,99.83,102.35,98Z"/><path class="cls-1" d="M86.17,42.76c10.84.45,17.88,6.41,22.65,15.57.66,1.26,2,2.94-.57,4-2.3,1-2.67-.57-3.4-2.16C101.09,52.05,94.72,47.57,85.77,47c-1.86-.13-3.17-.3-2.92-2.68C83.12,41.66,85,43,86.17,42.76Z"/><path class="cls-1" d="M60.2,44.9c.13,1.51-.72,2-2.15,2-9.85.54-16.72,5.35-20.42,14.52-.55,1.37-1.38,1.36-2.44,1s-1.9-1-1.61-2.58c1.52-8.47,16.94-19.08,25.14-17.26C60.15,42.91,60.23,43.75,60.2,44.9Z"/></g></g></svg>