<svg xmlns="http://www.w3.org/2000/svg" viewBox="0 0 129.47 159.86"><defs><style>.cls-1{fill:#023a4c;}</style></defs><g id="Layer_2" data-name="Layer 2"><g id="Layer_1-2" data-name="Layer 1"><path class="cls-1" d="M120.73,70a35.91,35.91,0,0,0-8.48,0c-4.79.65-7.64-.89-9.41-5.61s-4.52-9.26-6.79-13.89A21.25,21.25,0,0,0,81.9,38.84c-9.12-2.49-18.19-5.19-27.31-7.69a26.81,26.81,0,0,0-11.33-.8c-12.33,1.9-19.39,11-26.75,19.48-3.15,3.62-1.73,9.68,1.79,12.67a9.7,9.7,0,0,0,13.21-.3c3.34-3,6.45-6.26,9.58-9.49A8.25,8.25,0,0,1,48.23,50c2.92.3,4.53,1,3.19,4.63C48.58,62.23,46.15,70,43.59,77.77c-3.74,11.35-.7,19.78,9.45,26,7.51,4.63,15,9.25,22.61,13.71,2.09,1.23,2.62,2.38,1.87,4.76q-3.75,11.91-7,23.95c-1.71,6.27,1,11.53,6.55,13.2s10.61-1.52,12.42-7.77q3.83-13.18,7.42-26.44c2.54-9.38-.58-17.63-8.68-23-4-2.66-8.16-5.14-12.26-7.68-1.32-.82-2.42-1.5-1.61-3.5C77.18,84,79.86,76.9,83,68.79c1.74,3.35,3.08,5.76,4.28,8.24,3.13,6.5,7.71,11.27,15.14,12.43a78.8,78.8,0,0,0,18.92.2c5-.43,8.16-4.74,8.12-9.81A9.5,9.5,0,0,0,120.73,70ZM119.4,84.9c-2.66.07-5.33,0-8,0-11.19,2-17.57-3.66-21.72-13.33-1.36-3.17-2.3-7.7-7-7.38-4.38.3-4.63,4.73-5.91,7.83-2.41,5.84-4.53,11.8-7,17.64-1.62,3.92-.68,6.65,3,8.77,4.31,2.51,8.52,5.19,12.71,7.89,6.46,4.16,9,10.29,7,17.6-2.39,8.83-5.1,17.57-7.63,26.37-1,3.37-3,5.4-6.57,4.39s-4.18-3.79-3.2-7.18c2.39-8.32,4.59-16.69,7.06-25,1.12-3.78.21-6.25-3.23-8.32-8.13-4.87-16.1-10-24.1-15.07C47.2,94.28,45,88.21,47.81,79.51,50.32,71.75,53,64,55.53,56.31,58.2,48.25,54,43.6,45.44,45.12a14.71,14.71,0,0,0-8.21,4.41c-2.77,2.88-5.64,5.65-8.48,8.47-2.34,2.32-4.87,2.89-7.43.44s-2.11-5,.26-7.37c3.53-3.53,6.92-7.23,10.64-10.54a21.2,21.2,0,0,1,20.44-4.89c9.62,2.58,19.14,5.51,28.74,8.13a16.3,16.3,0,0,1,10.71,9c3.06,6.1,6.18,12.16,9.12,18.32,1.31,2.75,3.19,4,6.25,3.89,4-.14,8,0,12,0,3.18,0,5.18,1.55,5.27,4.71C124.82,83,122.76,84.8,119.4,84.9Z"/><path class="cls-1" d="M47.48,112.32c-2.91-1.14-2.37,1.62-2.91,2.77-3.09,6.52-8,9.91-15.33,9.8-6-.08-12-.1-17.95,0C7.7,125,4.77,124.1,4.7,120s2.71-5.2,6.39-5.13c5.65.11,11.3.18,16.94,0,2.19-.08,5.44,1.65,6.29-2,1-4.18,5.72-8.39,0-13.22a43.17,43.17,0,0,0-2,5.73c-.76,3.77-2.76,5-6.61,4.71a153.09,153.09,0,0,0-15.45-.07C4,110.08,0,114,0,119.81s3.87,9.89,10.06,10c7,.15,14,.36,20.93-.06,8.34-.5,14.18-5.08,17.72-12.6C49.61,115.25,50.19,113.38,47.48,112.32Z"/><path class="cls-1" d="M84.35,30c8,.27,15-6.56,15.16-14.73A14.79,14.79,0,1,0,84.35,30Zm.82-25a9.6,9.6,0,0,1,9.7,10.32C94.7,21.32,90.3,25.23,84,25A9.6,9.6,0,0,1,74.55,14.9C74.59,8.89,79,4.82,85.17,5Z"/></g></g></svg>