<svg xmlns="http://www.w3.org/2000/svg" viewBox="0 0 256.64 288.11"><defs><style>.cls-1{fill:#023a4c;stroke:#023a4c;stroke-miterlimit:10;stroke-width:3px;}</style></defs><g id="Layer_2" data-name="Layer 2"><g id="Layer_1-2" data-name="Layer 1"><path class="cls-1" d="M6.52,116.08c2.23-6.38,9.82-25.4,29.84-37.54,32.35-19.62,67.49-3.28,70.27-1.93H122a83.62,83.62,0,0,0-8.67-15.4A87.37,87.37,0,0,0,79.68,33.29l7.7-15.4a108.24,108.24,0,0,1,37.54,31.77,106.2,106.2,0,0,1,14.44,27h12.52c5.36-2.41,31.44-13.46,58.72-1.93,28.69,12.14,47,44.29,44.28,79.91l-16.36,1c3-31.3-13.36-58.92-37.55-67.39-21.17-7.41-40.83,2.47-45.24,4.82H101.82c-2.11-1.3-25.81-15.26-51-3.86-17.86,8.09-25.19,23.8-27,27.92Z"/><path class="cls-1" d="M133.85,50.06A49.36,49.36,0,0,1,143,26.31c11-14.92,28.49-19.25,39.72-22a97.55,97.55,0,0,1,17-2.65c-.46,2.11-1.15,5.19-2.06,8.88C194.75,22.3,193.3,28.19,191.22,33c-7.17,16.53-23.39,23.84-24.17,24.17a46.74,46.74,0,0,1-24.63,3.28c6.37-4.09,11.36-7.8,14.78-10.47,10.51-8.19,16.6-13,21.27-21.24a48,48,0,0,0,5.31-14.28Z"/><path class="cls-1" d="M248.14,177.69c-4-2.84-9.68-2.83-14.44,0H163.43c1.84-2.91,8.34-13.94,5.78-27.92A39,39,0,0,0,138.4,119,39.48,39.48,0,0,0,97,138.22H8.44A9.32,9.32,0,0,0,1.7,145a9.56,9.56,0,0,0,5.78,10.59H92.19c0,3,.17,17.6,11.55,28.88A39,39,0,0,0,124,195a38.34,38.34,0,0,0,13.48,0h95.3c4.51,3.13,10.18,3.52,14.44,1,.52-.31,5.87-3.65,5.78-9.63C252.88,181.15,248.74,178.11,248.14,177.69ZM130.7,179.61a23.1,23.1,0,1,1,23.1-23.1A23.1,23.1,0,0,1,130.7,179.61Z"/><circle class="cls-1" cx="130.22" cy="156.03" r="9.15"/><path class="cls-1" d="M9.4,255.66c-1.83-17.49,3.81-32.46,14.44-37.54a20.78,20.78,0,0,1,9.63-1.92H243.33a107.16,107.16,0,0,1-22.14,41.39c-5.76,6.62-14.65,16.6-29.84,23.1-6.69,2.87-15.67,6.71-27,5.78-20-1.65-23.12-16.26-38.5-15.4-13.34.74-14.09,11.88-30.81,14.44-13.91,2.12-25.69-3.73-31.77-6.74a67.39,67.39,0,0,1-24.06-20.22L52.72,248a63.76,63.76,0,0,0,12.52,12.52C71,264.81,77.92,270,87.38,270.1A29.85,29.85,0,0,0,98,268.18c6.75-2.43,8.54-5.63,14.44-8.67s11.12-3.47,15.4-3.85c19.62-1.71,25.39,15,43.32,14.44,11.92-.34,21.1-8.05,29.84-15.4a80.09,80.09,0,0,0,18.29-22.14l-184.83,1a8.92,8.92,0,0,0-5.77,1.93c-1.39,1.18-2.22,2.77-2.89,5.77a35.14,35.14,0,0,0,0,14.44Z"/></g></g></svg>